<svg viewBox="0 0 16 16" fill="none" xmlns="http://www.w3.org/2000/svg">
<path d="M2.5 7.50069C2.36739 7.50069 2.24021 7.55336 2.14645 7.64713C2.05268 7.7409 2 7.86808 2 8.00069C2 8.13329 2.05268 8.26047 2.14645 8.35424C2.24021 8.44801 2.36739 8.50069 2.5 8.50069H12.197L8.166 12.1287C8.11598 12.1722 8.07511 12.2253 8.04579 12.2847C8.01646 12.3442 7.99926 12.4089 7.99518 12.4751C7.99111 12.5413 8.00024 12.6076 8.02204 12.6703C8.04385 12.7329 8.07789 12.7906 8.12219 12.8399C8.16649 12.8892 8.22017 12.9293 8.28009 12.9577C8.34002 12.9861 8.40499 13.0023 8.47123 13.0053C8.53747 13.0084 8.60366 12.9982 8.66594 12.9755C8.72822 12.9527 8.78535 12.9177 8.834 12.8727L13.834 8.37268C13.8862 8.32579 13.928 8.26844 13.9566 8.20435C13.9851 8.14025 13.9999 8.07086 13.9999 8.00069C13.9999 7.93051 13.9851 7.86112 13.9566 7.79702C13.928 7.73293 13.8862 7.67558 13.834 7.62868L8.834 3.12869C8.73498 3.04251 8.60604 2.99874 8.47502 3.00681C8.344 3.01488 8.22142 3.07415 8.13372 3.17182C8.04602 3.26949 8.00025 3.39774 8.00629 3.52887C8.01233 3.65999 8.0697 3.78349 8.166 3.87269L12.197 7.50069H2.5Z" fill="none"/>
</svg>
