<svg viewBox="0 0 16 16" fill="none" xmlns="http://www.w3.org/2000/svg">
<g clip-path="url(#clip0_2202_162)">
<path d="M11 4.625C10.8646 4.625 10.7474 4.57552 10.6484 4.47656C10.5495 4.3776 10.5 4.26042 10.5 4.125C10.5 3.85938 10.5495 3.60417 10.6484 3.35938C10.7474 3.11458 10.8932 2.89844 11.0859 2.71094L11.7031 2.08594C11.901 1.88802 12 1.65104 12 1.375C12 1.23958 12.0495 1.1224 12.1484 1.02344C12.2474 0.924479 12.3646 0.875 12.5 0.875C12.6354 0.875 12.7526 0.924479 12.8516 1.02344C12.9505 1.1224 13 1.23958 13 1.375C13 1.64062 12.9505 1.89583 12.8516 2.14062C12.7526 2.38542 12.6068 2.60156 12.4141 2.78906L11.7969 3.41406C11.599 3.61198 11.5 3.84896 11.5 4.125C11.5 4.26042 11.4505 4.3776 11.3516 4.47656C11.2526 4.57552 11.1354 4.625 11 4.625ZM8 4.625C7.86458 4.625 7.7474 4.57552 7.64844 4.47656C7.54948 4.3776 7.5 4.26042 7.5 4.125C7.5 3.85938 7.54948 3.60417 7.64844 3.35938C7.7474 3.11458 7.89323 2.89844 8.08594 2.71094L8.70312 2.08594C8.90104 1.88802 9 1.65104 9 1.375C9 1.23958 9.04948 1.1224 9.14844 1.02344C9.2474 0.924479 9.36458 0.875 9.5 0.875C9.63542 0.875 9.7526 0.924479 9.85156 1.02344C9.95052 1.1224 10 1.23958 10 1.375C10 1.64062 9.95052 1.89583 9.85156 2.14062C9.7526 2.38542 9.60677 2.60156 9.41406 2.78906L8.79688 3.41406C8.59896 3.61198 8.5 3.84896 8.5 4.125C8.5 4.26042 8.45052 4.3776 8.35156 4.47656C8.2526 4.57552 8.13542 4.625 8 4.625ZM14.5 6C14.7083 6 14.9036 6.03906 15.0859 6.11719C15.2682 6.19531 15.4271 6.30208 15.5625 6.4375C15.6979 6.57292 15.8047 6.73177 15.8828 6.91406C15.9609 7.09635 16 7.29167 16 7.5V10.5C16 10.7083 15.9609 10.9036 15.8828 11.0859C15.8047 11.2682 15.6979 11.4271 15.5625 11.5625C15.4271 11.6979 15.2682 11.8047 15.0859 11.8828C14.9036 11.9609 14.7083 12 14.5 12H14.0547C14.0443 12.0365 14.0365 12.0703 14.0312 12.1016C14.026 12.1328 14.0156 12.1641 14 12.1953V12.5C14 12.8438 13.9349 13.1667 13.8047 13.4688C13.6745 13.7708 13.4948 14.0365 13.2656 14.2656C13.0365 14.4948 12.7708 14.6745 12.4688 14.8047C12.1667 14.9349 11.8438 15 11.5 15H8.5C8.09375 15 7.71875 14.9089 7.375 14.7266C7.03125 14.5443 6.74479 14.3021 6.51562 14H2.60938C2.26562 14 1.94271 13.9349 1.64062 13.8047C1.33854 13.6745 1.07292 13.4974 0.84375 13.2734C0.614583 13.0495 0.434896 12.7839 0.304688 12.4766C0.174479 12.1693 0.109375 11.8438 0.109375 11.5V11H2.10938C2.10938 10.5885 2.1875 10.2005 2.34375 9.83594C2.5 9.47135 2.71615 9.15365 2.99219 8.88281C3.26823 8.61198 3.58594 8.39583 3.94531 8.23438C4.30469 8.07292 4.69271 7.99479 5.10938 8C5.26562 8 5.41667 8.01302 5.5625 8.03906C5.70833 8.0651 5.85417 8.10156 6 8.14844V5H14V6H14.5ZM5.10938 9C4.83333 9 4.57552 9.05208 4.33594 9.15625C4.09635 9.26042 3.88281 9.40365 3.69531 9.58594C3.50781 9.76823 3.36458 9.97917 3.26562 10.2188C3.16667 10.4583 3.11458 10.7188 3.10938 11H6V9.21875C5.86458 9.15104 5.72396 9.09896 5.57812 9.0625C5.43229 9.02604 5.27604 9.00521 5.10938 9ZM2.60938 13H6.05469C6.01823 12.849 6 12.6823 6 12.5V12H1.19531C1.2474 12.1458 1.32031 12.2786 1.41406 12.3984C1.50781 12.5182 1.61458 12.625 1.73438 12.7188C1.85417 12.8125 1.98958 12.8802 2.14062 12.9219C2.29167 12.9635 2.44792 12.9896 2.60938 13ZM6.22656 13.5234V13.5312L6.23438 13.5469V13.5391L6.22656 13.5234ZM13 12.5V6H7V12.5C7 12.7083 7.03906 12.9036 7.11719 13.0859C7.19531 13.2682 7.30208 13.4271 7.4375 13.5625C7.57292 13.6979 7.73177 13.8047 7.91406 13.8828C8.09635 13.9609 8.29167 14 8.5 14H11.5C11.7083 14 11.9036 13.9609 12.0859 13.8828C12.2682 13.8047 12.4271 13.6979 12.5625 13.5625C12.6979 13.4271 12.8047 13.2682 12.8828 13.0859C12.9609 12.9036 13 12.7083 13 12.5ZM15 10.5V7.5C15 7.36458 14.9505 7.2474 14.8516 7.14844C14.7526 7.04948 14.6354 7 14.5 7H14V11H14.5C14.6354 11 14.7526 10.9505 14.8516 10.8516C14.9505 10.7526 15 10.6354 15 10.5Z" fill="none"/>
</g>
<defs>
<clipPath id="clip0_2202_162">
<rect width="16" height="16" fill="none"/>
</clipPath>
</defs>
</svg>
