<svg viewBox="0 0 16 16" fill="none" xmlns="http://www.w3.org/2000/svg">
<path d="M3.33333 12.6667H4.28333L10.8 6.15L9.85 5.2L3.33333 11.7167V12.6667ZM2.66667 14C2.47778 14 2.31956 13.936 2.192 13.808C2.06444 13.68 2.00044 13.5218 2 13.3333V11.7167C2 11.5389 2.03333 11.3693 2.1 11.208C2.16667 11.0467 2.26111 10.9051 2.38333 10.7833L10.8 2.38333C10.9333 2.26111 11.0807 2.16667 11.242 2.1C11.4033 2.03333 11.5727 2 11.75 2C11.9273 2 12.0996 2.03333 12.2667 2.1C12.4338 2.16667 12.5782 2.26667 12.7 2.4L13.6167 3.33333C13.75 3.45556 13.8471 3.6 13.908 3.76667C13.9689 3.93333 13.9996 4.1 14 4.26667C14 4.44444 13.9693 4.614 13.908 4.77533C13.8467 4.93667 13.7496 5.08378 13.6167 5.21667L5.21667 13.6167C5.09444 13.7389 4.95267 13.8333 4.79133 13.9C4.63 13.9667 4.46067 14 4.28333 14H2.66667ZM10.3167 5.68333L9.85 5.2L10.8 6.15L10.3167 5.68333Z" fill="currentColor"/>
</svg>
