<svg viewBox="0 0 16 16" fill="none" xmlns="http://www.w3.org/2000/svg">
<path d="M15 1C15.5523 1 16 1.44772 16 2V2.29672C16 2.56194 15.8946 2.81629 15.7071 3.00383L10.2929 8.41804C10.1054 8.60558 10 8.85993 10 9.12515V14C10 14.5523 9.55228 15 9 15H7C6.44772 15 6 14.5523 6 14V9.12515C6 8.85993 5.89464 8.60558 5.70711 8.41804L0.292893 3.00383C0.105357 2.81629 0 2.56194 0 2.29672V2C0 1.44772 0.447715 1 1 1H15ZM15 2.2044C15 2.09151 14.9085 2 14.7956 2H1.2044C1.09151 2 1 2.09151 1 2.2044V2.2044C1 2.25861 1.02153 2.3106 1.05987 2.34893L6.70711 7.99617C6.89464 8.18371 7 8.43806 7 8.70328V13C7 13.5523 7.44772 14 8 14V14C8.55228 14 9 13.5523 9 13V8.70328C9 8.43806 9.10536 8.18371 9.29289 7.99617L14.9401 2.34893C14.9785 2.3106 15 2.25861 15 2.2044V2.2044Z" />
</svg>
