<svg viewBox="0 0 16 16" fill="none" xmlns="http://www.w3.org/2000/svg">
<path d="M4.03484 1.14258C3.47256 1.14258 2.99599 1.56429 2.9377 2.12829C2.85313 2.93287 2.71484 4.38944 2.71484 5.28544C2.71484 6.13115 3.10227 6.88658 3.70742 7.38372C3.90627 7.54715 4.00056 7.72658 4.00056 7.87744V8.25572L3.99999 8.28258C3.97656 8.62487 3.71484 12.4466 3.71484 13.1426C3.71484 13.3677 3.75919 13.5906 3.84534 13.7986C3.93149 14.0066 4.05776 14.1956 4.21695 14.3548C4.37613 14.5139 4.56511 14.6402 4.7731 14.7264C4.98109 14.8125 5.20401 14.8569 5.42913 14.8569C5.65425 14.8569 5.87717 14.8125 6.08516 14.7264C6.29314 14.6402 6.48213 14.5139 6.64131 14.3548C6.8005 14.1956 6.92677 14.0066 7.01292 13.7986C7.09907 13.5906 7.14341 13.3677 7.14341 13.1426C7.14341 12.4466 6.88227 8.62487 6.85827 8.28258L6.8577 8.25572V7.87744C6.8577 7.72601 6.95199 7.54715 7.15084 7.38372C7.46145 7.12939 7.71163 6.80919 7.88329 6.4463C8.05496 6.0834 8.14381 5.68689 8.14341 5.28544C8.14341 4.38944 8.00513 2.93287 7.92056 2.12829C7.892 1.85738 7.76404 1.60667 7.5614 1.42461C7.35876 1.24255 7.09583 1.14207 6.82341 1.14258C6.56227 1.14258 6.3217 1.23287 6.13199 1.3843C5.93118 1.22766 5.6838 1.14259 5.42913 1.14258C5.17446 1.14259 4.92708 1.22766 4.72627 1.3843C4.53006 1.22731 4.28613 1.14203 4.03484 1.14258ZM5.14342 2.28544C5.14342 2.20966 5.17352 2.13699 5.2271 2.08341C5.28068 2.02983 5.35335 1.99972 5.42913 1.99972C5.50491 1.99972 5.57758 2.02983 5.63116 2.08341C5.68474 2.13699 5.71484 2.20966 5.71484 2.28544V5.28544C5.71484 5.3991 5.76 5.50811 5.84037 5.58848C5.92074 5.66886 6.02975 5.71401 6.14341 5.71401C6.25708 5.71401 6.36609 5.66886 6.44646 5.58848C6.52683 5.50811 6.57199 5.3991 6.57199 5.28544V2.25115C6.57199 2.18447 6.59848 2.12052 6.64563 2.07337C6.69278 2.02621 6.75673 1.99972 6.82341 1.99972C6.95199 1.99972 7.05599 2.09515 7.06856 2.21744C7.15313 3.02887 7.28627 4.44144 7.28627 5.28544C7.28668 5.56021 7.22592 5.83164 7.1084 6.08001C6.99089 6.32839 6.81956 6.5475 6.60684 6.72144C6.29941 6.97401 6.00056 7.37287 6.00056 7.87744V8.25572C6.00056 8.28429 6.00113 8.31058 6.00342 8.34144C6.02856 8.71001 6.28627 12.4849 6.28627 13.1426C6.28627 13.3699 6.19597 13.5879 6.03522 13.7487C5.87448 13.9094 5.65646 13.9997 5.42913 13.9997C5.2018 13.9997 4.98378 13.9094 4.82304 13.7487C4.66229 13.5879 4.57199 13.3699 4.57199 13.1426C4.57199 12.4854 4.82913 8.71001 4.85484 8.34144C4.85713 8.31058 4.8577 8.28429 4.8577 8.25572V7.87744C4.8577 7.37229 4.55884 6.97401 4.25142 6.72144C4.0387 6.5475 3.86737 6.32839 3.74985 6.08001C3.63234 5.83164 3.57158 5.56021 3.57199 5.28544C3.57199 4.44144 3.70513 3.02944 3.7897 2.21744C3.79623 2.15718 3.82494 2.10152 3.87026 2.06127C3.91557 2.02103 3.97424 1.99909 4.03484 1.99972C4.10153 1.99972 4.16548 2.02621 4.21263 2.07337C4.25978 2.12052 4.28627 2.18447 4.28627 2.25115V5.28544C4.28627 5.3991 4.33143 5.50811 4.4118 5.58848C4.49217 5.66886 4.60118 5.71401 4.71484 5.71401C4.82851 5.71401 4.93752 5.66886 5.01789 5.58848C5.09826 5.50811 5.14342 5.3991 5.14342 5.28544V2.28544ZM12.8577 2.00315V7.57115C12.8577 7.77115 12.9114 8.71229 12.9708 9.74829L12.9743 9.8083C13.0543 11.2003 13.1434 12.7597 13.1434 13.1426C13.1434 13.3699 13.0531 13.5879 12.8924 13.7487C12.7316 13.9094 12.5136 13.9997 12.2863 13.9997C12.0589 13.9997 11.8409 13.9094 11.6802 13.7487C11.5194 13.5879 11.4291 13.3699 11.4291 13.1426C11.4291 12.8026 11.4994 11.4266 11.5714 10.114C11.6136 9.34479 11.657 8.57565 11.7017 7.80658L11.7143 7.59629L11.7148 7.57115C11.7148 7.45749 11.6697 7.34848 11.5893 7.26811C11.5089 7.18773 11.3999 7.14258 11.2863 7.14258H10.1434C10.1055 7.14258 10.0692 7.12753 10.0424 7.10074C10.0156 7.07395 10.0006 7.03761 10.0006 6.99972V4.99972C10.0006 4.22881 10.2973 3.48749 10.8293 2.92954C11.3613 2.3716 12.0877 2.03986 12.8577 2.00315ZM10.832 7.99972L10.8137 8.31744C10.7868 8.78429 10.7508 9.41458 10.7154 10.0672C10.6446 11.3626 10.572 12.7723 10.572 13.1426C10.572 13.3677 10.6163 13.5906 10.7025 13.7986C10.7886 14.0066 10.9149 14.1956 11.0741 14.3548C11.2333 14.5139 11.4223 14.6402 11.6302 14.7264C11.8382 14.8125 12.0611 14.8569 12.2863 14.8569C12.5114 14.8569 12.7343 14.8125 12.9423 14.7264C13.1503 14.6402 13.3393 14.5139 13.4985 14.3548C13.6576 14.1956 13.7839 14.0066 13.8701 13.7986C13.9562 13.5906 14.0006 13.3677 14.0006 13.1426C14.0006 12.7306 13.9103 11.1574 13.8326 9.79687L13.8303 9.75915C13.768 8.67401 13.7148 7.74258 13.7148 7.57115V1.57115C13.7148 1.45749 13.6697 1.34848 13.5893 1.26811C13.5089 1.18773 13.3999 1.14258 13.2863 1.14258H13.0006C11.9776 1.14258 10.9965 1.54896 10.2731 2.27231C9.54979 2.99567 9.14341 3.97675 9.14341 4.99972V6.99972C9.14341 7.55172 9.59141 7.99972 10.1434 7.99972H10.832Z" fill="none"/>
</svg>
