<svg viewBox="0 0 16 16" xmlns="http://www.w3.org/2000/svg" fill="currentColor">
<path d="M8.00065 11.334C8.18954 11.334 8.34799 11.27 8.47599 11.142C8.60399 11.014 8.66776 10.8558 8.66732 10.6673V8.00065C8.66732 7.81176 8.60332 7.65354 8.47532 7.52598C8.34732 7.39843 8.1891 7.33443 8.00065 7.33398C7.81221 7.33354 7.65399 7.39754 7.52599 7.52598C7.39799 7.65443 7.33399 7.81265 7.33399 8.00065V10.6673C7.33399 10.8562 7.39799 11.0147 7.52599 11.1427C7.65399 11.2707 7.81221 11.3344 8.00065 11.334ZM8.00065 6.00065C8.18954 6.00065 8.34799 5.93665 8.47599 5.80865C8.60399 5.68065 8.66776 5.52243 8.66732 5.33398C8.66687 5.14554 8.60287 4.98732 8.47532 4.85932C8.34776 4.73132 8.18954 4.66732 8.00065 4.66732C7.81176 4.66732 7.65354 4.73132 7.52599 4.85932C7.39843 4.98732 7.33443 5.14554 7.33399 5.33398C7.33354 5.52243 7.39754 5.68087 7.52599 5.80932C7.65443 5.93776 7.81265 6.00154 8.00065 6.00065ZM8.00065 14.6673C7.07843 14.6673 6.21176 14.4922 5.40065 14.142C4.58954 13.7918 3.88399 13.3169 3.28399 12.7173C2.68399 12.1178 2.2091 11.4122 1.85932 10.6007C1.50954 9.7891 1.33443 8.92243 1.33399 8.00065C1.33354 7.07887 1.50865 6.21221 1.85932 5.40065C2.20999 4.5891 2.68487 3.88354 3.28399 3.28398C3.8831 2.68443 4.58865 2.20954 5.40065 1.85932C6.21265 1.5091 7.07932 1.33398 8.00065 1.33398C8.92199 1.33398 9.78865 1.5091 10.6007 1.85932C11.4127 2.20954 12.1182 2.68443 12.7173 3.28398C13.3164 3.88354 13.7915 4.5891 14.1427 5.40065C14.4938 6.21221 14.6687 7.07887 14.6673 8.00065C14.666 8.92243 14.4909 9.7891 14.142 10.6007C13.7931 11.4122 13.3182 12.1178 12.7173 12.7173C12.1164 13.3169 11.4109 13.792 10.6007 14.1427C9.79043 14.4933 8.92376 14.6682 8.00065 14.6673ZM8.00065 13.334C9.48954 13.334 10.7507 12.8173 11.784 11.784C12.8173 10.7507 13.334 9.48954 13.334 8.00065C13.334 6.51176 12.8173 5.25065 11.784 4.21732C10.7507 3.18398 9.48954 2.66732 8.00065 2.66732C6.51176 2.66732 5.25065 3.18398 4.21732 4.21732C3.18399 5.25065 2.66732 6.51176 2.66732 8.00065C2.66732 9.48954 3.18399 10.7507 4.21732 11.784C5.25065 12.8173 6.51176 13.334 8.00065 13.334Z" />
</svg>
