<svg viewBox="0 0 20 20" fill="none" xmlns="http://www.w3.org/2000/svg">
<path d="M6.50033 1.66797H13.5003C16.167 1.66797 18.3337 3.83464 18.3337 6.5013V13.5013C18.3337 14.7832 17.8244 16.0126 16.918 16.919C16.0116 17.8254 14.7822 18.3346 13.5003 18.3346H6.50033C3.83366 18.3346 1.66699 16.168 1.66699 13.5013V6.5013C1.66699 5.21942 2.17622 3.99005 3.08264 3.08362C3.98907 2.17719 5.21845 1.66797 6.50033 1.66797ZM6.33366 3.33464C5.53801 3.33464 4.77495 3.65071 4.21234 4.21332C3.64973 4.77592 3.33366 5.53899 3.33366 6.33464V13.668C3.33366 15.3263 4.67533 16.668 6.33366 16.668H13.667C14.4626 16.668 15.2257 16.3519 15.7883 15.7893C16.3509 15.2267 16.667 14.4636 16.667 13.668V6.33464C16.667 4.6763 15.3253 3.33464 13.667 3.33464H6.33366ZM14.3753 4.58464C14.6516 4.58464 14.9165 4.69438 15.1119 4.88973C15.3072 5.08508 15.417 5.35004 15.417 5.6263C15.417 5.90257 15.3072 6.16752 15.1119 6.36287C14.9165 6.55822 14.6516 6.66797 14.3753 6.66797C14.0991 6.66797 13.8341 6.55822 13.6388 6.36287C13.4434 6.16752 13.3337 5.90257 13.3337 5.6263C13.3337 5.35004 13.4434 5.08508 13.6388 4.88973C13.8341 4.69438 14.0991 4.58464 14.3753 4.58464ZM10.0003 5.83464C11.1054 5.83464 12.1652 6.27362 12.9466 7.05502C13.728 7.83643 14.167 8.89623 14.167 10.0013C14.167 11.1064 13.728 12.1662 12.9466 12.9476C12.1652 13.729 11.1054 14.168 10.0003 14.168C8.89526 14.168 7.83545 13.729 7.05405 12.9476C6.27265 12.1662 5.83366 11.1064 5.83366 10.0013C5.83366 8.89623 6.27265 7.83643 7.05405 7.05502C7.83545 6.27362 8.89526 5.83464 10.0003 5.83464ZM10.0003 7.5013C9.33728 7.5013 8.7014 7.76469 8.23256 8.23354C7.76372 8.70238 7.50033 9.33826 7.50033 10.0013C7.50033 10.6643 7.76372 11.3002 8.23256 11.7691C8.7014 12.2379 9.33728 12.5013 10.0003 12.5013C10.6634 12.5013 11.2993 12.2379 11.7681 11.7691C12.2369 11.3002 12.5003 10.6643 12.5003 10.0013C12.5003 9.33826 12.2369 8.70238 11.7681 8.23354C11.2993 7.76469 10.6634 7.5013 10.0003 7.5013Z" fill="currentColor"/>
</svg>
