<svg viewBox="0 0 16 16" fill="none" xmlns="http://www.w3.org/2000/svg">
<path d="M12 6V7C12.3958 7 12.7734 7.04427 13.1328 7.13281C13.4922 7.22135 13.8125 7.36719 14.0938 7.57031C14.375 7.77344 14.5938 8.03125 14.75 8.34375C14.9062 8.65625 14.9896 9.04167 15 9.5C15 9.84375 14.9349 10.1667 14.8047 10.4688C14.6745 10.7708 14.4948 11.0339 14.2656 11.2578C14.0365 11.4818 13.7708 11.6615 13.4688 11.7969C13.1667 11.9323 12.8438 12 12.5 12H8.5C8.15625 12 7.83333 11.9349 7.53125 11.8047C7.22917 11.6745 6.96615 11.4948 6.74219 11.2656C6.51823 11.0365 6.33854 10.7708 6.20312 10.4688C6.06771 10.1667 6 9.84375 6 9.5C6 9.04688 6.08073 8.66406 6.24219 8.35156C6.40365 8.03906 6.625 7.78125 6.90625 7.57812C7.1875 7.375 7.50521 7.22917 7.85938 7.14062C8.21354 7.05208 8.59375 7.00521 9 7V6H8.5C8.01562 6 7.5625 6.09115 7.14062 6.27344C6.71875 6.45573 6.34896 6.70573 6.03125 7.02344C5.71354 7.34115 5.46354 7.71094 5.28125 8.13281C5.09896 8.55469 5.00521 9.01042 5 9.5C5 9.98438 5.09115 10.4375 5.27344 10.8594C5.45573 11.2812 5.70573 11.651 6.02344 11.9688C6.34115 12.2865 6.71094 12.5365 7.13281 12.7188C7.55469 12.901 8.01042 12.9948 8.5 13H12.5C12.9844 13 13.4375 12.9089 13.8594 12.7266C14.2812 12.5443 14.651 12.2943 14.9688 11.9766C15.2865 11.6589 15.5365 11.2891 15.7188 10.8672C15.901 10.4453 15.9948 9.98958 16 9.5C16 9.01562 15.9089 8.5625 15.7266 8.14062C15.5443 7.71875 15.2943 7.34896 14.9766 7.03125C14.6589 6.71354 14.2891 6.46354 13.8672 6.28125C13.4453 6.09896 12.9896 6.00521 12.5 6H12ZM7 10V9C7.39583 9 7.77344 8.95573 8.13281 8.86719C8.49219 8.77865 8.8125 8.63281 9.09375 8.42969C9.375 8.22656 9.59375 7.96875 9.75 7.65625C9.90625 7.34375 9.98958 6.95833 10 6.5C10 6.15625 9.9349 5.83333 9.80469 5.53125C9.67448 5.22917 9.49479 4.96615 9.26562 4.74219C9.03646 4.51823 8.77083 4.33854 8.46875 4.20312C8.16667 4.06771 7.84375 4 7.5 4H3.5C3.15625 4 2.83333 4.0651 2.53125 4.19531C2.22917 4.32552 1.96615 4.50521 1.74219 4.73438C1.51823 4.96354 1.33854 5.22917 1.20312 5.53125C1.06771 5.83333 1 6.15625 1 6.5C1 6.95312 1.08073 7.33594 1.24219 7.64844C1.40365 7.96094 1.625 8.21875 1.90625 8.42188C2.1875 8.625 2.50521 8.77083 2.85938 8.85938C3.21354 8.94792 3.59375 8.99479 4 9V10H3.5C3.01562 10 2.5625 9.90885 2.14062 9.72656C1.71875 9.54427 1.34896 9.29427 1.03125 8.97656C0.713542 8.65885 0.463542 8.28906 0.28125 7.86719C0.0989583 7.44531 0.00520833 6.98958 0 6.5C0 6.01562 0.0911458 5.5625 0.273438 5.14062C0.455729 4.71875 0.705729 4.34896 1.02344 4.03125C1.34115 3.71354 1.71094 3.46354 2.13281 3.28125C2.55469 3.09896 3.01042 3.00521 3.5 3H7.5C7.98438 3 8.4375 3.09115 8.85938 3.27344C9.28125 3.45573 9.65104 3.70573 9.96875 4.02344C10.2865 4.34115 10.5365 4.71094 10.7188 5.13281C10.901 5.55469 10.9948 6.01042 11 6.5C11 6.98438 10.9089 7.4375 10.7266 7.85938C10.5443 8.28125 10.2943 8.65104 9.97656 8.96875C9.65885 9.28646 9.28906 9.53646 8.86719 9.71875C8.44531 9.90104 7.98958 9.99479 7.5 10H7Z" />
</svg>
