<svg viewBox="0 0 16 16" fill="none" xmlns="http://www.w3.org/2000/svg">
<path d="M8 1C9.5913 1 11.1174 1.63214 12.2426 2.75736C13.3679 3.88258 14 5.4087 14 7C14 9.874 10.903 13.016 9.16 14.558C8.49 15.148 7.51 15.148 6.84 14.558C5.098 13.016 2 9.874 2 7C2 5.4087 2.63214 3.88258 3.75736 2.75736C4.88258 1.63214 6.4087 1 8 1ZM8 2C6.67392 2 5.40215 2.52678 4.46447 3.46447C3.52678 4.40215 3 5.67392 3 7C3 8.108 3.614 9.395 4.57 10.683C5.503 11.941 6.657 13.06 7.504 13.809C7.794 14.065 8.206 14.065 8.496 13.809C9.343 13.06 10.496 11.942 11.431 10.683C12.386 9.395 13 8.108 13 7C13 5.67392 12.4732 4.40215 11.5355 3.46447C10.5979 2.52678 9.32608 2 8 2ZM8 4.75C8.29547 4.75 8.58806 4.8082 8.86104 4.92127C9.13402 5.03434 9.38206 5.20008 9.59099 5.40901C9.79992 5.61794 9.96566 5.86598 10.0787 6.13896C10.1918 6.41194 10.25 6.70453 10.25 7C10.25 7.29547 10.1918 7.58806 10.0787 7.86104C9.96566 8.13402 9.79992 8.38206 9.59099 8.59099C9.38206 8.79992 9.13402 8.96566 8.86104 9.07873C8.58806 9.1918 8.29547 9.25 8 9.25C7.40326 9.25 6.83097 9.01295 6.40901 8.59099C5.98705 8.16903 5.75 7.59674 5.75 7C5.75 6.40326 5.98705 5.83097 6.40901 5.40901C6.83097 4.98705 7.40326 4.75 8 4.75ZM8 5.75C7.66848 5.75 7.35054 5.8817 7.11612 6.11612C6.8817 6.35054 6.75 6.66848 6.75 7C6.75 7.33152 6.8817 7.64946 7.11612 7.88388C7.35054 8.1183 7.66848 8.25 8 8.25C8.33152 8.25 8.64946 8.1183 8.88388 7.88388C9.1183 7.64946 9.25 7.33152 9.25 7C9.25 6.66848 9.1183 6.35054 8.88388 6.11612C8.64946 5.8817 8.33152 5.75 8 5.75Z" fill="none"/>
</svg>
