<svg viewBox="0 0 18 18" fill="none" xmlns="http://www.w3.org/2000/svg">
<path d="M3.69782 2.57031C3.05846 2.57031 2.44529 2.8243 1.99319 3.27639C1.54109 3.72849 1.28711 4.34167 1.28711 4.98103V12.3739C1.28711 13.0132 1.54109 13.6264 1.99319 14.0785C2.44529 14.5306 3.05846 14.7846 3.69782 14.7846H14.3024C14.9418 14.7846 15.5549 14.5306 16.007 14.0785C16.4591 13.6264 16.7131 13.0132 16.7131 12.3739V4.98103C16.7131 4.34167 16.4591 3.72849 16.007 3.27639C15.5549 2.8243 14.9418 2.57031 14.3024 2.57031H3.69782ZM2.2514 4.98103C2.2514 4.59741 2.40379 4.22951 2.67504 3.95825C2.9463 3.68699 3.31421 3.5346 3.69782 3.5346H14.3024C14.686 3.5346 15.0539 3.68699 15.3252 3.95825C15.5964 4.22951 15.7488 4.59741 15.7488 4.98103V5.48181L8.99882 8.9391L2.2514 5.4831V4.98103ZM2.2514 6.56695L8.77897 9.90981C8.84701 9.94468 8.92237 9.96286 8.99882 9.96286C9.07528 9.96286 9.15064 9.94468 9.21868 9.90981L15.7488 6.56567V12.3745C15.7488 12.7581 15.5964 13.126 15.3252 13.3973C15.0539 13.6686 14.686 13.821 14.3024 13.821H3.69847C3.31485 13.821 2.94694 13.6686 2.67569 13.3973C2.40443 13.126 2.25204 12.7581 2.25204 12.3745L2.2514 6.56695Z" />
</svg>
