<svg viewBox="0 0 14 14" fill="none" xmlns="http://www.w3.org/2000/svg">
<g clip-path="url(#clip0_2264_8)">
<path d="M10.9855 8.29199C11.186 8.29199 11.3774 8.32845 11.5597 8.40137C11.742 8.47428 11.9061 8.58366 12.0519 8.72949L13.5558 10.2334C13.6971 10.3747 13.8042 10.5365 13.8771 10.7188C13.95 10.901 13.9888 11.0947 13.9933 11.2998C13.9933 11.5003 13.9569 11.6917 13.884 11.874C13.811 12.0563 13.7017 12.2204 13.5558 12.3662L13.4601 12.4619C13.214 12.708 12.9885 12.9268 12.7834 13.1182C12.5783 13.3096 12.3641 13.4691 12.1408 13.5967C11.9175 13.7243 11.6691 13.8245 11.3957 13.8975C11.1222 13.9704 10.7964 14.0046 10.4181 14C9.84848 14 9.26287 13.9111 8.6613 13.7334C8.05974 13.5557 7.46274 13.3096 6.87029 12.9951C6.27784 12.6807 5.69451 12.307 5.12029 11.874C4.54607 11.4411 4.00603 10.9694 3.50017 10.459C2.99431 9.94857 2.52491 9.40625 2.09197 8.83203C1.65903 8.25781 1.28988 7.67448 0.984546 7.08203C0.679207 6.48958 0.437671 5.89486 0.259937 5.29785C0.0822022 4.70085 -0.00438639 4.12663 0.000170898 3.5752C0.000170898 3.19694 0.0320719 2.87337 0.095874 2.60449C0.159676 2.33561 0.257658 2.08952 0.389819 1.86621C0.521981 1.6429 0.681486 1.43099 0.868335 1.23047C1.05518 1.02995 1.27393 0.804362 1.52458 0.553711L1.63396 0.444336C1.77524 0.30306 1.93702 0.193685 2.11931 0.116211C2.3016 0.038737 2.49529 0 2.70037 0C2.90089 0 3.09229 0.038737 3.27458 0.116211C3.45688 0.193685 3.62094 0.30306 3.76677 0.444336L5.27068 1.94824C5.41195 2.08952 5.51905 2.2513 5.59197 2.43359C5.66488 2.61589 5.70362 2.80957 5.70818 3.01465C5.70818 3.21517 5.674 3.3929 5.60564 3.54785C5.53728 3.7028 5.45297 3.84635 5.35271 3.97852C5.25245 4.11068 5.14307 4.22689 5.02459 4.32715C4.9061 4.42741 4.79444 4.52995 4.68962 4.63477C4.58481 4.73958 4.5005 4.83984 4.43669 4.93555C4.37289 5.03125 4.33871 5.1429 4.33416 5.27051C4.33416 5.44368 4.39568 5.5918 4.51873 5.71484L8.28533 9.48145C8.40837 9.60449 8.55649 9.66602 8.72966 9.66602C8.84815 9.66602 8.95753 9.63184 9.05779 9.56348C9.15805 9.49512 9.26059 9.41081 9.36541 9.31055C9.47022 9.21029 9.57276 9.10091 9.67302 8.98242C9.77328 8.86393 9.88949 8.75228 10.0217 8.64746C10.1538 8.54264 10.2951 8.45833 10.4455 8.39453C10.5959 8.33073 10.7759 8.29655 10.9855 8.29199ZM10.4181 13.125C10.7463 13.125 11.0197 13.0954 11.2385 13.0361C11.4572 12.9769 11.6577 12.888 11.84 12.7695C12.0223 12.651 12.1955 12.5052 12.3595 12.332C12.5236 12.1589 12.7173 11.9629 12.9406 11.7441C13.0636 11.6211 13.1252 11.473 13.1252 11.2998C13.1252 11.2178 13.0933 11.1221 13.0295 11.0127C12.9657 10.9033 12.8791 10.7848 12.7697 10.6572C12.6603 10.5296 12.5441 10.4043 12.4211 10.2812C12.298 10.1582 12.1704 10.0352 12.0383 9.91211C11.9061 9.78906 11.7899 9.68197 11.6896 9.59082C11.5894 9.49967 11.5051 9.41992 11.4367 9.35156C11.3136 9.22852 11.1633 9.16699 10.9855 9.16699C10.867 9.16699 10.7577 9.20117 10.6574 9.26953C10.5571 9.33789 10.4569 9.4222 10.3566 9.52246C10.2564 9.62272 10.1538 9.7321 10.049 9.85059C9.94418 9.96908 9.82569 10.0807 9.69353 10.1855C9.56137 10.2904 9.42009 10.3747 9.2697 10.4385C9.11931 10.5023 8.9393 10.5365 8.72966 10.541C8.52914 10.541 8.33774 10.5046 8.15544 10.4316C7.97315 10.3587 7.80909 10.2493 7.66326 10.1035L3.89666 6.33691C3.75538 6.19564 3.64828 6.03385 3.57537 5.85156C3.50245 5.66927 3.46371 5.47559 3.45916 5.27051C3.45916 5.06999 3.49334 4.89225 3.56169 4.7373C3.63005 4.58236 3.71436 4.4388 3.81462 4.30664C3.91488 4.17448 4.02426 4.05827 4.14275 3.95801C4.26124 3.85775 4.37289 3.75293 4.47771 3.64355C4.58253 3.53418 4.66684 3.43392 4.73064 3.34277C4.79444 3.25163 4.82862 3.14225 4.83318 3.01465C4.83318 2.83691 4.77166 2.68652 4.64861 2.56348C4.58936 2.50423 4.51189 2.4222 4.41619 2.31738C4.32048 2.21257 4.21339 2.09635 4.0949 1.96875C3.97641 1.84115 3.85336 1.71354 3.72576 1.58594C3.59815 1.45833 3.47055 1.33984 3.34294 1.23047C3.21534 1.12109 3.09913 1.03678 2.99431 0.977539C2.88949 0.918294 2.79151 0.884115 2.70037 0.875C2.52719 0.875 2.37908 0.936523 2.25603 1.05957L1.67498 1.64062C1.50636 1.80924 1.36052 1.98242 1.23748 2.16016C1.11443 2.33789 1.02328 2.53613 0.964038 2.75488C0.904793 2.97363 0.872892 3.24707 0.868335 3.5752C0.868335 4.08561 0.950366 4.61198 1.11443 5.1543C1.27849 5.69661 1.50863 6.23893 1.80486 6.78125C2.10108 7.32357 2.44972 7.85677 2.85076 8.38086C3.2518 8.90495 3.6893 9.40397 4.16326 9.87793C4.63722 10.3519 5.13624 10.7848 5.66033 11.1768C6.18442 11.5687 6.71762 11.9105 7.25994 12.2021C7.80225 12.4938 8.34001 12.7194 8.87322 12.8789C9.40642 13.0384 9.9214 13.1204 10.4181 13.125Z" />
</g>
<defs>
<clipPath id="clip0_2264_8">
<rect width="14" height="14" />
</clipPath>
</defs>
</svg>
