<svg viewBox="0 0 16 16" fill="none" xmlns="http://www.w3.org/2000/svg">
<path fill-rule="evenodd" clip-rule="evenodd" d="M8.27331 2.43598C8.7375 1.93069 9.36739 1.60847 10.0488 1.52775C10.7301 1.44702 11.4179 1.61314 11.9873 1.99598L12.1073 2.08131L12.3226 2.24265C12.6164 2.46289 12.8587 2.74453 13.0325 3.06794C13.2064 3.39135 13.3077 3.74877 13.3293 4.11531L13.3333 4.26398V14.0006C13.3331 14.1706 13.2681 14.334 13.1514 14.4576C13.0348 14.5811 12.8753 14.6555 12.7057 14.6654C12.5361 14.6754 12.3691 14.6202 12.2388 14.5111C12.1084 14.4021 12.0247 14.2474 12.0046 14.0786L12 14.0006V4.26398C11.9996 4.09771 11.9647 3.93333 11.8974 3.78127C11.8302 3.62921 11.7321 3.49278 11.6093 3.38065L11.5226 3.30931L11.3073 3.14798C11.0615 2.96312 10.7658 2.85645 10.4586 2.84183C10.1514 2.82721 9.84688 2.90531 9.58464 3.06598L9.48264 3.13465L9.98797 3.42665C10.5792 3.76794 11.0171 4.32302 11.2113 4.97751C11.4056 5.63201 11.3414 6.33607 11.032 6.94465L10.964 7.06931L10.6306 7.64665C10.5489 7.78796 10.4182 7.89439 10.2633 7.94575C10.1083 7.99711 9.93991 7.98984 9.78997 7.92531L9.71997 7.89065L3.94664 4.55731C3.80517 4.47559 3.69863 4.34475 3.64726 4.18966C3.59589 4.03456 3.60326 3.866 3.66797 3.71598L3.70264 3.64665L4.03597 3.06931C4.37727 2.47804 4.93234 2.04019 5.58684 1.84596C6.24133 1.65173 6.94539 1.71592 7.55397 2.02531L7.67864 2.09331L8.27331 2.43598ZM4.49997 10.2653C4.65309 10.3537 4.76481 10.4993 4.81057 10.6701C4.85633 10.8409 4.83237 11.0229 4.74397 11.176L4.41064 11.7533C4.36718 11.8297 4.30904 11.8968 4.23956 11.9507C4.17007 12.0046 4.09062 12.0441 4.00577 12.0672C3.92092 12.0902 3.83235 12.0962 3.74517 12.0849C3.65798 12.0736 3.57389 12.0451 3.49775 12.0012C3.42161 11.9572 3.35492 11.8986 3.30152 11.8288C3.24811 11.7589 3.20905 11.6792 3.18657 11.5942C3.1641 11.5092 3.15866 11.4206 3.17057 11.3335C3.18248 11.2464 3.21151 11.1625 3.25597 11.0866L3.58931 10.5093C3.67771 10.3562 3.82332 10.2445 3.99411 10.1987C4.16489 10.153 4.34685 10.1769 4.49997 10.2653ZM5.98797 10.3546C6.07247 10.2062 6.21069 10.0959 6.37413 10.0464C6.53757 9.99695 6.71377 10.0121 6.86639 10.0887C7.01902 10.1653 7.13642 10.2975 7.19439 10.4582C7.25237 10.6188 7.24649 10.7956 7.17797 10.952L7.14264 11.0213L6.80931 11.5986C6.72406 11.7456 6.58596 11.8544 6.42318 11.9029C6.26041 11.9515 6.08525 11.9361 5.93346 11.8598C5.78167 11.7836 5.66471 11.6523 5.60645 11.4927C5.54819 11.3332 5.55302 11.1574 5.61997 11.0013L5.65464 10.932L5.98797 10.3546ZM3.43464 8.11065C3.58775 8.19905 3.69948 8.34466 3.74524 8.51545C3.791 8.68623 3.76704 8.86819 3.67864 9.02131L3.34531 9.59865C3.25627 9.75052 3.11078 9.86101 2.94058 9.906C2.77039 9.951 2.5893 9.92685 2.43684 9.83883C2.28438 9.7508 2.17293 9.60605 2.12681 9.43615C2.08068 9.26626 2.10363 9.08502 2.19064 8.93198L2.52397 8.35465C2.61238 8.20153 2.75799 8.0898 2.92877 8.04405C3.09956 7.99829 3.28152 8.02224 3.43464 8.11065ZM5.83331 7.95598C5.98642 8.04439 6.09815 8.19 6.14391 8.36078C6.18966 8.53156 6.16571 8.71353 6.07731 8.86665L5.74397 9.44398C5.70052 9.52041 5.64237 9.58749 5.57289 9.64136C5.5034 9.69522 5.42395 9.73482 5.3391 9.75785C5.25425 9.78089 5.16568 9.78691 5.0785 9.77558C4.99131 9.76425 4.90723 9.73578 4.83109 9.69182C4.75495 9.64786 4.68825 9.58927 4.63485 9.51943C4.58144 9.44959 4.54238 9.36988 4.51991 9.28488C4.49743 9.19988 4.492 9.11127 4.50391 9.02416C4.51582 8.93705 4.54484 8.85316 4.58931 8.77731L4.92264 8.19998C5.01105 8.04686 5.15666 7.93514 5.32744 7.88938C5.49822 7.84362 5.68019 7.86758 5.83331 7.95598ZM7.32131 8.04531C7.40611 7.89763 7.54421 7.788 7.70728 7.73892C7.87034 7.68983 8.04601 7.70501 8.19825 7.78134C8.35048 7.85767 8.46773 7.98936 8.52594 8.1494C8.58415 8.30943 8.57892 8.48568 8.51131 8.64198L8.47597 8.71198L8.14264 9.28931C8.0574 9.43623 7.91929 9.54507 7.75652 9.59361C7.59374 9.64215 7.41858 9.62673 7.26679 9.55049C7.11501 9.47426 6.99804 9.34296 6.93978 9.18341C6.88152 9.02386 6.88636 8.84808 6.95331 8.69198L6.98797 8.62265L7.32131 8.04531ZM4.76797 5.80065C4.92109 5.88905 5.03281 6.03466 5.07857 6.20545C5.12433 6.37623 5.10037 6.55819 5.01197 6.71131L4.67864 7.28865C4.58961 7.44052 4.44412 7.55101 4.27392 7.596C4.10372 7.641 3.92263 7.61685 3.77018 7.52883C3.61772 7.4408 3.50627 7.29605 3.46014 7.12616C3.41401 6.95626 3.43696 6.77502 3.52397 6.62198L3.85731 6.04465C3.94571 5.89153 4.09132 5.7798 4.26211 5.73405C4.43289 5.68829 4.61485 5.71224 4.76797 5.80065ZM5.19064 3.73531L9.80931 6.40198C9.98611 6.09574 10.034 5.73181 9.9425 5.39025C9.85099 5.04868 9.62754 4.75746 9.32131 4.58065L7.01197 3.24731C6.70573 3.07051 6.3418 3.0226 6.00024 3.11411C5.65868 3.20563 5.36746 3.42908 5.19064 3.73531Z" fill="none"/>
</svg>
